<?xml version="1.0" encoding="UTF-8"?>
<svg id="Layer_2" data-name="Layer 2" xmlns="http://www.w3.org/2000/svg" viewBox="0 0 82.44 55.24">
  <defs>
    <style>
      .cls-1 {
        fill: #231f20;
      }
    </style>
  </defs>
  <g id="Layer_1-2" data-name="Layer 1">
    <path class="cls-1" d="M82.44,.16h-17.05l-9.95,24.81h-.41L43.19,0,25.99,.16c-1.52-.07-3.12-.12-4.81-.12H0v.49L4.41,4.78l-.08,45.39L.08,54.75v.49H20.28v-19.06h3.27c7.65,0,13.6-1.64,17.88-4.9l6.98,14.25h.9L62.93,11.99h.49l.08,38.51v4.73s15.91,0,15.91,0l-.08-50.35,3.1-4.24V.16ZM31.19,28.33c-.73,2.46-1.79,4.13-3.19,5.03-1.39,.9-3.23,1.35-5.52,1.35h-2.2V1.51h1.8c1.69,0,3.13,.24,4.35,.68h0c.21,.08,.4,.16,.6,.24,.31,.14,.62,.29,.9,.47,1.45,.93,2.54,2.56,3.27,4.91,.09,.3,.18,.61,.26,.94,0,.03,.02,.07,.02,.11,.07,.3,.14,.61,.21,.94,0,.01,0,.02,0,.04,.14,.72,.25,1.51,.34,2.35h0c.18,1.63,.27,3.49,.27,5.59,0,4.58-.37,8.1-1.11,10.55Z"/>
  </g>
</svg>