<?xml version="1.0" encoding="UTF-8"?>
<svg id="Layer_2" data-name="Layer 2" xmlns="http://www.w3.org/2000/svg" viewBox="0 0 336.51 123.69">
  <defs>
    <style>
      .cls-1 {
        fill: #231f20;
      }
    </style>
  </defs>
  <g id="Layer_1-2" data-name="Layer 1">
    <path class="cls-1" d="M157.32,32.94c.54,.38,1.17,.93,1.88,1.64,.76,.76,1.46,1.35,2.09,1.76,.63,.41,1.3,.61,2.01,.61,1.96,0,3.79-1.24,5.48-3.72,1.69-2.48,3.06-4.98,4.09-7.49l-.41-.25c-.27,.33-.53,.55-.78,.65-.25,.11-.59,.16-1.02,.16-.71,0-1.45-.27-2.21-.82-.76-.54-1.67-1.31-2.7-2.29-.6-.54-1.2-1.05-1.8-1.51-.6-.46-1.09-.7-1.47-.7-.55,0-1.38,.71-2.5,2.13-1.12,1.42-2.69,3.55-4.71,6.38l-2.13,2.95h-.65c.05-.54,.08-1.34,.08-2.37,0-3.33-.56-5.66-1.68-7-1.12-1.34-2.66-2-4.62-2-1.36,0-2.67,.44-3.93,1.31-1.26,.87-2.43,1.98-3.52,3.31-1.09,1.34-2.54,3.29-4.34,5.85l-1.72,2.46,.33,.41,6.14-3.03v30.61l-3.85,3.19v.49h18.25v-31.34c.22-.54,.53-1.01,.94-1.39,.41-.38,.75-.57,1.02-.57,.6,0,1.17,.19,1.72,.57ZM50.69,54.38c2.02,3.35,4.8,5.95,8.35,7.77,3.55,1.83,7.5,2.74,11.87,2.74,2.62,0,7.83-4.28,15.63-12.85l-.41-.41c-1.58,.82-2.96,1.41-4.13,1.76-1.17,.36-2.36,.53-3.56,.53-3.93,0-7.37-1.23-10.31-3.68-2.95-2.46-5.27-5.59-6.96-9.41h10.48c1.15,0,2.89-.45,5.24-1.35,2.35-.9,4.45-1.94,6.3-3.11,1.85-1.17,2.78-2.11,2.78-2.82-.33-4.36-1.83-7.9-4.5-10.6-2.67-2.7-6.47-4.05-11.38-4.05-2.24,0-5.12,.71-8.63,2.13-3.52,1.42-6.7,3.9-9.53,7.45-2.84,3.55-4.26,8.24-4.26,14.08,0,4.53,1.01,8.47,3.03,11.83Zm9.29-29.83c.85-1.25,1.9-1.88,3.15-1.88,1.47,0,2.82,.74,4.05,2.21s2.21,3.48,2.95,6.02c.74,2.54,1.13,5.36,1.19,8.47h-10.72c-1.26-3.33-1.88-6.47-1.88-9.41,0-2.35,.42-4.15,1.27-5.4Zm112.81,29.3c1.75,3.38,4.23,6.07,7.45,8.06,3.22,1.99,6.93,2.99,11.13,2.99,1.75,0,4.3-.7,7.65-2.09s6.44-3.83,9.25-7.32c2.81-3.49,4.21-8.21,4.21-14.16,0-4.09-.87-7.84-2.62-11.25-1.75-3.41-4.24-6.11-7.49-8.1-3.25-1.99-6.97-2.99-11.17-2.99-1.75,0-4.28,.7-7.61,2.09-3.33,1.39-6.4,3.86-9.21,7.41-2.81,3.55-4.21,8.32-4.21,14.32,0,3.98,.87,7.67,2.62,11.05Zm12.44-31.1c3.76,0,7.75,5.95,11.95,17.84,2.35,6.87,3.52,12,3.52,15.39,0,2.73-.68,4.37-2.05,4.91-.55,.11-.96,.16-1.23,.16-1.96,0-3.97-1.49-6.02-4.46-2.05-2.97-4.11-7.43-6.18-13.38-2.24-6.55-3.36-11.59-3.36-15.14s1.12-5.32,3.36-5.32ZM.08,63.18v.49H24.55v-.49l-4.26-4.58v-13.99h3.27c7.86,0,13.94-1.72,18.25-5.16,4.31-3.44,6.47-8.16,6.47-14.16,0-4.42-1.05-7.86-3.15-10.31-2.1-2.46-5.1-4.16-9-5.12-3.9-.95-8.88-1.43-14.94-1.43H0v.49l4.42,4.26-.08,45.42L.08,63.18ZM20.3,9.9h1.8c2.46,0,4.41,.46,5.85,1.39,1.44,.93,2.54,2.57,3.27,4.91,.74,2.35,1.1,5.67,1.1,9.98,0,4.58-.37,8.1-1.1,10.56-.74,2.46-1.8,4.13-3.19,5.03-1.39,.9-3.23,1.35-5.52,1.35h-2.21V9.9ZM116.24,62.61c1.15,1.53,2.75,2.29,4.83,2.29s3.86-.83,5.52-2.5c1.66-1.66,3.81-4.38,6.42-8.14,.11-.16,.65-.95,1.64-2.37l-.33-.41-6.06,3.03V0l-.49,.16h-.08l-19.07,5.81v.49l5.07,1.8v11.95c-1.09-.22-2.43-.33-4.01-.33-2.35,0-5.16,.68-8.43,2.05-3.27,1.36-6.21,3.87-8.8,7.53-2.59,3.66-3.89,8.62-3.89,14.9,0,5.73,1.25,10.41,3.76,14.04,2.51,3.63,6.38,5.77,11.62,6.42,.49,.05,1.72-.86,3.68-2.74,1.96-1.88,4.31-4.35,7.04-7.41v-.08h.08c-.16,3.82,.33,6.49,1.47,8.02Zm-2.54-8.76c-.6,.55-1.3,.97-2.09,1.27-.79,.3-1.49,.45-2.09,.45-2.4,0-4.11-1.7-5.11-5.12-1.01-3.41-1.51-8.31-1.51-14.69,0-5.18,.5-8.77,1.51-10.76,1.01-1.99,2.39-2.99,4.13-2.99,1.2,0,2.28,.56,3.23,1.68,.95,1.12,1.6,2.96,1.92,5.52v24.63ZM42.19,92.1h-.41l-11.87-25.04-17.68,.16v.49l4.58,8.18v46.57h17.27v-.41c-5.24-4.26-9.12-9.3-11.66-15.14-2.54-5.84-3.81-13.04-3.81-21.61v-5.48h.41l16.12,32.9h.9l13.67-33.64h.49l.08,38.63-4.42,4.26v.49h20.38l-.08-50.5,3.11-4.26v-.49h-17.1l-9.98,24.88Zm197.83,21.03v-1.23l.74-14.49c.16-2.24,.25-4.36,.25-6.38,0-2.89-.33-5.31-.98-7.24-.66-1.94-1.88-3.44-3.68-4.5-1.8-1.06-4.37-1.6-7.69-1.6-1.42,0-3.59,.46-6.51,1.39-2.92,.93-6.26,3.02-10.03,6.26-3.76,3.25-7.09,7.98-9.98,14.2l.25,.41,15.14-4.26c-.98-3.11-1.47-5.76-1.47-7.94,0-1.8,.35-3.14,1.06-4.01,.71-.87,1.66-1.31,2.86-1.31,1.91,0,3.44,1.21,4.58,3.64,1.15,2.43,1.69,5.66,1.64,9.7l-9,3.93c-4.37,2.02-7.83,4.17-10.39,6.47-2.56,2.29-3.85,5.16-3.85,8.59,0,2.73,.86,4.87,2.58,6.42,1.72,1.56,4,2.33,6.83,2.33,3.33,0,6.08-1.04,8.27-3.11,2.18-2.07,4.06-4.88,5.65-8.43h.41c-.05,.55-.08,1.34-.08,2.37,0,3.33,.56,5.67,1.68,7.04,1.12,1.36,2.66,2.05,4.62,2.05s3.76-.82,5.4-2.46,3.74-4.31,6.3-8.02l1.8-2.54-.33-.41-6.06,3.11Zm-14-3.93c-.76,1.47-1.66,2.58-2.7,3.31-1.04,.74-2.02,1.1-2.95,1.1-.87,0-1.69-.37-2.46-1.1-.76-.74-1.15-1.87-1.15-3.4,0-1.8,.72-3.6,2.17-5.4,1.44-1.8,3.86-3.85,7.24-6.14l-.16,11.62Zm106.27-23.93c-2.81-3.55-5.88-6.02-9.21-7.41-3.33-1.39-5.86-2.09-7.61-2.09-4.2,0-7.92,1-11.17,2.99-3.25,1.99-5.74,4.69-7.49,8.1-1.75,3.41-2.62,9.16-2.62,13.25,0,5.95,1.41,8.67,4.21,12.16,2.81,3.49,5.89,5.93,9.25,7.32s5.91,2.09,7.65,2.09c4.2,0,7.91-1,11.13-2.99,3.22-1.99,5.7-4.68,7.45-8.06,1.75-3.38,2.62-7.06,2.62-11.05,0-6-1.4-10.77-4.21-14.32Zm-10.84,14.73c-2.07,5.95-4.13,10.41-6.18,13.38-2.05,2.97-4.05,4.46-6.01,4.46-.27,0-.68-.05-1.23-.16-1.36-.54-2.05-2.18-2.05-4.91,0-3.38,1.17-8.51,3.52-15.39,4.2-11.89,8.18-17.84,11.95-17.84,2.24,0,3.36,1.77,3.36,5.32s-1.12,8.59-3.36,15.14Zm-34.21,13.29V58.79l-.49,.16h-.08l-19.07,5.81v.49l5.07,1.8v11.95c-1.09-.22-2.43-.33-4.01-.33-2.35,0-5.16,.68-8.43,2.05-3.27,1.36-6.21,3.87-8.8,7.53-2.59,3.66-3.89,8.62-3.89,14.9,0,5.73,1.25,10.41,3.76,14.04,2.51,3.63,6.38,5.77,11.62,6.42,.49,.05,1.72-.86,3.68-2.74,1.96-1.88,4.31-4.35,7.04-7.41v-.08h.08c-.16,3.82,.33,6.49,1.47,8.02s2.75,2.29,4.83,2.29,3.86-.83,5.52-2.5c1.66-1.66,3.81-4.38,6.42-8.14,.11-.16,.65-.95,1.64-2.37l-.33-.41-6.06,3.03Zm-14.57-.65c-.6,.55-1.3,.97-2.09,1.27-.79,.3-1.49,.45-2.09,.45-2.4,0-4.11-1.7-5.12-5.12-1.01-3.41-1.51-8.31-1.51-14.69,0-5.18,.5-8.77,1.51-10.76,1.01-1.99,2.39-2.99,4.13-2.99,1.2,0,2.28,.56,3.23,1.68,.95,1.12,1.6,2.96,1.92,5.52v24.63Zm-75.95-20.54c0-4.26-1.01-7.71-3.03-10.35-2.02-2.65-5.18-3.97-9.49-3.97-2.29,0-6.11,3.52-11.46,10.56v-29.38h-.49l-13.91,4.24v55.59l-3.76,3.19v.49h22.01v-.49l-3.85-3.19v-27.99c1.42-2.02,3.08-3.03,4.99-3.03,3,0,4.5,1.77,4.5,5.32v25.7l-3.85,3.19v.49h22.01v-.49l-3.76-3.19,.08-26.68Zm-88.71,21.03v-1.23l.74-14.49c.16-2.24,.25-4.36,.25-6.38,0-2.89-.33-5.31-.98-7.24-.65-1.94-1.88-3.44-3.68-4.5-1.8-1.06-4.37-1.6-7.69-1.6-1.42,0-3.59,.46-6.51,1.39-2.92,.93-6.26,3.02-10.03,6.26-3.76,3.25-7.09,7.98-9.98,14.2l.25,.41,15.14-4.26c-.98-3.11-1.47-5.76-1.47-7.94,0-1.8,.35-3.14,1.06-4.01,.71-.87,1.66-1.31,2.86-1.31,1.91,0,3.44,1.21,4.58,3.64,1.15,2.43,1.69,5.66,1.64,9.7l-9,3.93c-4.37,2.02-7.83,4.17-10.39,6.47-2.56,2.29-3.85,5.16-3.85,8.59,0,2.73,.86,4.87,2.58,6.42,1.72,1.56,4,2.33,6.83,2.33,3.33,0,6.08-1.04,8.27-3.11,2.18-2.07,4.06-4.88,5.65-8.43h.41c-.06,.55-.08,1.34-.08,2.37,0,3.33,.56,5.67,1.68,7.04,1.12,1.36,2.66,2.05,4.62,2.05s3.76-.82,5.4-2.46,3.74-4.31,6.3-8.02l1.8-2.54-.33-.41-6.06,3.11Zm-13.99-3.93c-.76,1.47-1.67,2.58-2.7,3.31-1.04,.74-2.02,1.1-2.95,1.1-.87,0-1.69-.37-2.46-1.1-.76-.74-1.15-1.87-1.15-3.4,0-1.8,.72-3.6,2.17-5.4,1.44-1.8,3.86-3.85,7.24-6.14l-.16,11.62Zm51.64,3.27c-3.82,0-7.27-1.35-10.35-4.05-3.08-2.7-5.5-5.99-7.24-9.86-1.75-3.87-2.62-7.42-2.62-10.64,0-2.18,.4-3.81,1.19-4.87,.79-1.06,1.84-1.6,3.15-1.6,2.13,0,4.08,1.65,5.85,4.95,1.77,3.3,2.91,7.08,3.4,11.33l.41,.25,13.67-11.62c-.33-.98-1.13-2.15-2.41-3.52-1.28-1.36-3.08-2.56-5.4-3.6-2.32-1.04-5.03-1.55-8.14-1.55-2.24,0-5.09,.72-8.55,2.17-3.47,1.45-6.59,3.92-9.37,7.41-2.78,3.49-4.17,8.13-4.17,13.91,0,4.64,.98,8.65,2.95,12.03,1.96,3.38,4.69,5.97,8.18,7.77,3.49,1.8,7.42,2.7,11.78,2.7,1.36,0,3.49-1.19,6.38-3.56,2.89-2.37,6.11-5.52,9.66-9.45l-.41-.49c-2.89,1.53-5.54,2.29-7.94,2.29Z"/>
  </g>
</svg>