<svg width="1309" height="444" viewBox="0 0 1309 444" fill="currentColor" xmlns="http://www.w3.org/2000/svg">
<path d="M72.5847 128.86V177.183L87.2711 193.008V194.704H2.82431V193.008L17.5107 177.183L17.7931 20.3464L2.54188 5.65177V3.95624H75.6914C96.5913 3.95624 113.725 5.65178 127.094 9.04284C140.65 12.2455 151.006 18.0857 158.161 26.5633C165.504 35.041 169.176 46.9097 169.176 62.1695C169.176 82.8927 161.739 99.1887 146.864 111.057C131.989 122.926 110.995 128.86 83.8819 128.86H72.5847ZM72.5847 9.04284V123.774H80.2103C88.1184 123.774 94.426 122.267 99.1332 119.252C104.029 116.05 107.7 110.21 110.148 101.732C112.784 93.2543 114.102 81.103 114.102 65.278C114.102 50.395 112.784 38.9031 110.148 30.8022C107.7 22.7013 103.934 17.0495 98.8507 13.8468C93.9553 10.6442 87.2711 9.04284 78.7982 9.04284H72.5847Z" fill="white"/>
<path d="M340.23 114.448V194.704H182.916V193.008L198.167 178.314V20.3464L182.916 5.65177V3.95624H338.535V84.2115H336.84L321.024 59.6262C311.233 43.9896 303.796 33.0629 298.712 26.8459C293.817 20.4406 288.262 15.9192 282.049 13.2817C275.835 10.4558 267.174 9.04284 256.065 9.04284H253.241V96.0802H256.065C261.714 96.0802 266.704 95.2324 271.034 93.5369C275.365 91.653 279.884 87.8851 284.591 82.2333C289.298 76.5816 294.57 68.1981 300.407 57.0829H302.102V139.881H300.407C291.934 124.622 284.403 114.354 277.812 109.079C271.411 103.616 264.162 100.884 256.065 100.884H253.241V189.617H257.76C268.869 189.617 277.53 188.298 283.744 185.661C289.957 182.835 295.511 178.314 300.407 172.097C305.491 165.691 312.928 154.67 322.719 139.034L326.391 133.099L338.535 114.448H340.23Z" fill="white"/>
<path d="M436.662 3.95624C506.328 3.95624 541.161 34.1932 541.161 94.6673C541.161 111.434 537.866 127.353 531.276 142.425C524.875 157.496 513.86 170.024 498.232 180.009C482.792 189.805 462.457 194.704 437.227 194.704H366.054V193.008L381.306 178.314V20.3464L366.054 5.65177V3.95624H436.662ZM441.746 189.052C452.29 189.052 460.48 186.226 466.317 180.574C472.342 174.734 476.579 165.409 479.027 152.598C481.663 139.787 482.981 121.984 482.981 99.1887C482.981 77.1467 481.663 59.7204 479.027 46.9097C476.391 33.9107 471.778 24.3968 465.188 18.3683C458.786 12.1513 449.654 9.04284 437.792 9.04284H436.38V189.052H441.746Z" fill="white"/>
<path d="M686.571 101.449L734.302 192.16V194.704H655.504V193.008L669.625 178.314L632.909 101.449H626.414V177.183L641.1 193.008V194.704H556.653V193.008L571.34 177.183L571.622 20.3464L556.371 5.65177V3.95624H646.184C670.284 3.95624 689.396 7.15891 703.517 13.5643C717.639 19.9696 724.699 30.8964 724.699 46.3446C724.699 59.532 718.486 71.1182 706.059 81.103C693.632 91.0878 673.485 97.7757 645.619 101.167V103.145L686.571 101.449ZM626.414 96.3628H634.886C647.69 96.3628 656.163 92.0298 660.305 83.3637C664.636 74.5092 666.801 63.2057 666.801 49.453C666.801 37.0191 664.73 27.2227 660.588 20.0638C656.445 12.7165 648.82 9.04284 637.711 9.04284H626.414V96.3628Z" fill="white"/>
<path d="M833.932 198.943C817.174 198.943 802.017 194.515 788.46 185.661C775.092 176.806 764.548 164.843 756.828 149.772C749.297 134.701 745.531 118.028 745.531 99.7538C745.531 74.886 751.368 55.1048 763.042 40.4102C774.715 25.5272 787.519 15.0714 801.452 9.04284C815.385 3.01428 826.024 0 833.367 0C849.748 0 864.622 4.42722 877.991 13.2817C891.548 22.1361 902.186 34.1932 909.906 49.453C917.625 64.5244 921.485 81.103 921.485 99.1887C921.485 124.056 915.648 143.932 903.974 158.815C892.301 173.51 879.497 183.871 865.564 189.9C851.631 195.928 841.087 198.943 833.932 198.943ZM862.457 182.835C867.353 182.835 871.118 180.668 873.754 176.335C876.39 171.814 877.708 165.314 877.708 156.837C877.708 138.374 871.966 114.825 860.48 86.1896C851.631 63.9593 842.216 46.7213 832.237 34.4758C822.258 22.2303 812.938 16.1076 804.276 16.1076C799.193 16.1076 795.145 18.3683 792.132 22.8897C789.308 27.4111 787.895 34.099 787.895 42.9535C787.895 58.4017 792.697 78.9365 802.299 104.558C811.337 128.672 821.316 147.794 832.237 161.923C843.158 175.864 853.231 182.835 862.457 182.835Z" fill="white"/>
<path d="M196.854 250.709L186.122 265.404L186.404 439.761H116.079V438.066L131.33 423.371L131.048 289.989H129.353L82.1873 406.133H79.0806L23.4417 292.532H22.0296V311.466C22.0296 341.043 26.3602 365.911 35.0214 386.069C43.8709 406.227 57.3334 423.654 75.409 438.348V439.761H15.8161V278.968L0 250.709V249.014L61.005 248.449L101.957 334.921H103.37L137.826 249.014H196.854V250.709Z" fill="white"/>
<path d="M321.925 249.014L386.319 438.066V439.761H309.78V438.066L324.184 423.371L307.238 373.635H260.92C261.296 387.2 263.179 399.539 266.568 410.655C270.146 421.77 275.041 430.907 281.255 438.066V439.761H208.952V438.066L275.888 284.903L263.744 250.709V249.014H321.925ZM305.544 368.549L279.842 292.815H278.148L271.652 311.183C265.062 330.023 261.484 349.144 260.92 368.549H305.544Z" fill="white"/>
<path d="M484.933 442.87C466.858 442.116 450.477 437.689 435.791 429.588C421.104 421.299 409.524 409.713 401.052 394.83C392.767 379.947 388.625 362.52 388.625 342.551C388.625 318.625 394.367 299.409 405.853 284.903C417.338 270.208 430.236 259.94 444.546 254.1C459.044 248.072 471 245.057 480.415 245.057C496.984 245.057 511.67 248.449 524.474 255.231C537.277 261.824 546.221 269.925 551.305 279.533L504.986 325.03L503.291 324.465C496.325 299.786 487.946 282.736 478.155 273.316C468.364 263.708 459.232 258.904 450.759 258.904C444.734 258.904 439.65 261.636 435.508 267.099C431.366 272.563 429.2 280.852 429.012 291.967C429.012 307.227 432.307 323.335 438.897 340.29C445.487 357.245 455.843 371.657 469.965 383.526C484.086 395.395 501.597 401.329 522.497 401.329C530.405 401.329 539.16 399.634 548.763 396.242L549.893 397.938C539.348 406.792 526.639 416.495 511.764 427.045C496.89 437.595 487.946 442.87 484.933 442.87Z" fill="white"/>
<path d="M744.015 249.014V250.709L729.329 266.534V422.241L744.015 438.066V439.761H659.568V438.066L674.255 422.241V349.898H633.02V422.241L647.424 438.066V439.761H563.259V438.066L577.663 422.241V266.534L563.259 250.709V249.014H647.424V250.709L633.02 266.534V344.811H674.255V266.534L659.568 250.709V249.014H744.015Z" fill="white"/>
<path d="M867.755 249.014L932.149 438.066V439.761H855.61V438.066L870.014 423.371L853.069 373.635H806.75C807.127 387.2 809.009 399.539 812.399 410.655C815.976 421.77 820.872 430.907 827.085 438.066V439.761H754.783V438.066L821.719 284.903L809.574 250.709V249.014H867.755ZM851.374 368.549L825.673 292.815H823.978L817.482 311.183C810.892 330.023 807.315 349.144 806.75 368.549H851.374Z" fill="white"/>
<path d="M1014.21 249.014C1083.88 249.014 1118.71 279.251 1118.71 339.725C1118.71 356.492 1115.42 372.411 1108.82 387.482C1102.42 402.554 1091.41 415.082 1075.78 425.067C1060.34 434.863 1040.01 439.761 1014.78 439.761H943.603V438.066L958.854 423.371V265.404L943.603 250.709V249.014H1014.21ZM1019.29 434.109C1029.84 434.109 1038.03 431.284 1043.87 425.632C1049.89 419.792 1054.13 410.466 1056.58 397.655C1059.21 384.845 1060.53 367.042 1060.53 344.246C1060.53 322.204 1059.21 304.778 1056.58 291.967C1053.94 278.968 1049.33 269.454 1042.74 263.426C1036.33 257.209 1027.2 254.1 1015.34 254.1H1013.93V434.109H1019.29Z" fill="white"/>
<path d="M1221.45 444C1204.69 444 1189.53 439.573 1175.98 430.718C1162.61 421.864 1152.06 409.901 1144.34 394.83C1136.81 379.758 1133.05 363.085 1133.05 344.811C1133.05 319.943 1138.88 300.162 1150.56 285.468C1162.23 270.585 1175.03 260.129 1188.97 254.1C1202.9 248.072 1213.54 245.057 1220.88 245.057C1237.26 245.057 1252.14 249.485 1265.51 258.339C1279.06 267.194 1289.7 279.251 1297.42 294.511C1305.14 309.582 1309 326.16 1309 344.246C1309 369.114 1303.16 388.989 1291.49 403.872C1279.82 418.567 1267.01 428.929 1253.08 434.957C1239.15 440.986 1228.6 444 1221.45 444ZM1249.97 427.892C1254.87 427.892 1258.63 425.726 1261.27 421.393C1263.91 416.871 1265.22 410.372 1265.22 401.894C1265.22 383.432 1259.48 359.883 1247.99 331.247C1239.15 309.017 1229.73 291.779 1219.75 279.533C1209.77 267.288 1200.45 261.165 1191.79 261.165C1186.71 261.165 1182.66 263.426 1179.65 267.947C1176.82 272.469 1175.41 279.157 1175.41 288.011C1175.41 303.459 1180.21 323.994 1189.81 349.615C1198.85 373.73 1208.83 392.851 1219.75 406.981C1230.67 420.922 1240.75 427.892 1249.97 427.892Z" fill="white"/>
</svg>
